<?xml version="1.0" encoding="utf-8"?>
<!-- Generator: Adobe Illustrator 18.1.1, SVG Export Plug-In . SVG Version: 6.00 Build 0)  -->
<!DOCTYPE svg PUBLIC "-//W3C//DTD SVG 1.1//EN" "http://www.w3.org/Graphics/SVG/1.1/DTD/svg11.dtd">
<svg version="1.1" id="Layer_1" xmlns="http://www.w3.org/2000/svg" xmlns:xlink="http://www.w3.org/1999/xlink" x="0px" y="0px"
	 viewBox="0 0 578.3 96.6" enable-background="new 0 0 578.3 96.6" xml:space="preserve">
<g>
	<path fill="white" d="M1.8,77.3l28.5,5.6h49.5c-0.1-0.7-0.2-1.5-0.2-2.2c0-9.9,8-17.9,17.9-17.9c9.9,0,17.9,8,17.9,17.9
		c0,0.8-0.1,1.5-0.2,2.2h143.9c-0.1-0.7-0.2-1.5-0.2-2.2c0-9.9,8-17.9,17.9-17.9c9.9,0,17.9,8,17.9,17.9c0,0.8-0.1,1.5-0.2,2.2h60.7
		c1.2,0,2.2-1,2.2-2.2V58.3V7.8V2.2c0-1.2-1-2.2-2.2-2.2H2.2C1,0,0,1,0,2.2v72.8C0,76.2,0.8,77.1,1.8,77.3z M346.3,10.1h6.7V56h-6.7
		V10.1z M323.9,10.1h17.9v48.2v14.6h-17.9V10.1z M301.5,47.1v-37h17.9v62.8h-17.9V47.1z M256.6,10.1H297v34.7h-40.3V10.1z
		 M211.8,10.1h40.3v6.7h-40.3V10.1z M211.8,21.3h40.3v23.5h-40.3V21.3z M189.4,10.1h17.9v37v25.8h-17.9V10.1z M167,47.1v-37h17.9
		v62.8H167V47.1z M122.2,10.1h40.3v6.7h-40.3V10.1z M122.2,21.3h40.3v23.5h-40.3V21.3z M77.3,10.1h40.3v34.7H77.3V10.1z M32.5,10.1
		h40.3v34.7H32.5V10.1z M10.1,10.1H28v34.7H10.1V10.1z"/>
	<path fill="white" d="M276.8,65c-8.7,0-15.7,7-15.7,15.7s7,15.7,15.7,15.7c8.7,0,15.7-7,15.7-15.7S285.5,65,276.8,65z
		 M276.8,87.4c-3.7,0-6.7-3-6.7-6.7c0-3.7,3-6.7,6.7-6.7c3.7,0,6.7,3,6.7,6.7C283.5,84.4,280.5,87.4,276.8,87.4z"/>
	<path fill="white" d="M97.5,65c-8.7,0-15.7,7-15.7,15.7s7,15.7,15.7,15.7s15.7-7,15.7-15.7S106.2,65,97.5,65z M97.5,87.4
		c-3.7,0-6.7-3-6.7-6.7c0-3.7,3-6.7,6.7-6.7c3.7,0,6.7,3,6.7,6.7C104.2,84.4,101.2,87.4,97.5,87.4z"/>
</g>
<polygon opacity="0.85" fill="#C8DE9B" points="358.1,66.4 393.8,96.6 578.3,95.1 358.1,57 "/>
</svg>
