<?xml version="1.0" encoding="utf-8"?>
<!-- Generator: Adobe Illustrator 18.1.1, SVG Export Plug-In . SVG Version: 6.00 Build 0)  -->
<!DOCTYPE svg PUBLIC "-//W3C//DTD SVG 1.1//EN" "http://www.w3.org/Graphics/SVG/1.1/DTD/svg11.dtd">
<svg version="1.1" id="Layer_1" xmlns="http://www.w3.org/2000/svg" xmlns:xlink="http://www.w3.org/1999/xlink" x="0px" y="0px"
	 viewBox="0 145.9 581.5 325.2" enable-background="new 0 145.9 581.5 325.2" xml:space="preserve">
<g>
	<path fill="#C8DE9B" d="M0,454.4v-46.5h8.1v46.5c0,2.1,0.3,3.9,0.5,5c0.3,1,1,2.1,1.6,2.6c0.5,0.5,1.3,0.8,2.1,1c0.8,0,1.3,0,1.8,0
		s1.3,0,1.8,0c0.8,0,1.3-0.5,2.1-1c0.5-0.5,1-1.3,1.6-2.6c0.5-1.3,0.5-2.9,0.5-5v-46.5h8.1v46.5c0,5.2-1,9.1-3.4,12
		c-0.8,1-2.1,2.1-3.9,3.1c-1.8,1-3.9,1.6-6.8,1.6s-5.2-0.5-6.8-1.6s-3.1-2.1-3.9-3.1C1,463.5,0,459.6,0,454.4z"/>
	<path fill="#C8DE9B" d="M34.7,471.1v-63.2h6.8L56.9,446v-38.1H65v63.2h-6.8L42.8,433v38.1L34.7,471.1L34.7,471.1z"/>
	<path fill="#C8DE9B" d="M71,453.1v-27.2c0-5.5,1.3-9.9,3.7-13.1c0.5-0.5,1-1,1.6-1.6c0.8-0.5,1.6-1,2.4-1.6c1-0.5,2.1-0.8,3.1-1.3
		c1.3-0.3,2.6-0.5,4.2-0.5c3.1,0,5.5,0.5,7.3,1.6c1.8,1,3.1,2.1,4.2,3.4c2.4,3.1,3.7,7.6,3.7,13.1v27.2c0,5.5-1.3,9.9-3.7,13.1
		c-1,1-2.4,2.4-4.2,3.4c-1.8,1-4.2,1.6-7.3,1.6c-3.1,0-5.5-0.5-7.3-1.6s-3.1-2.1-4.2-3.4C72.4,463,71,458.8,71,453.1z M79.1,453.1
		c0,2.6,0.3,4.4,0.8,5.7s1,2.4,1.8,2.9c0.8,0.5,1.6,1,2.4,1s1.6,0.3,2.1,0.3c0.5,0,1.3,0,2.1-0.3c0.8,0,1.6-0.5,2.4-1
		c0.8-0.5,1.3-1.6,1.8-2.9c0.5-1.3,0.8-3.4,0.8-5.7v-27.2c0-2.4-0.3-4.4-0.8-5.7c-0.5-1.3-1-2.4-1.8-2.9c-0.8-0.5-1.6-1-2.4-1
		c-0.8,0-1.6-0.3-2.1-0.3c-0.5,0-1.3,0-2.1,0.3c-0.8,0-1.6,0.5-2.4,1c-0.8,0.5-1.3,1.6-1.8,2.9c-0.5,1.3-0.8,3.1-0.8,5.7
		C79.1,425.9,79.1,453.1,79.1,453.1z"/>
	<path fill="#C8DE9B" d="M105.8,471.1v-63.2h8.1v27.4h12v-27.4h8.1v63.2h-8.1v-27.7h-12v27.7H105.8z"/>
	<path fill="#C8DE9B" d="M140.8,471.1v-63.2h12.5c5.5,0,9.4,1.6,12.3,5c2.6,3.1,3.7,7.6,3.7,13.3v26.6c0,5.7-1.3,10.2-3.7,13.3
		c-2.6,3.4-6.8,5-12.3,5H140.8z M148.9,463.3h4.4c1,0,2.1,0,2.9-0.3c1-0.3,1.8-0.5,2.6-1.3s1.3-1.8,1.8-3.1c0.5-1.3,0.8-3.1,0.8-5.5
		v-26.6c0-2.4-0.3-4.2-0.8-5.5c-0.5-1.3-1-2.4-1.8-3.1s-1.6-1-2.6-1.3s-1.8-0.3-2.9-0.3h-4.4V463.3z"/>
	<path fill="#C8DE9B" d="M174.5,471.1l14.6-63.2h6l14.6,63.2h-8.1l-4.2-17.5h-11l-4.2,17.5H174.5z M188.6,445.5h7.3l-3.7-15.7
		L188.6,445.5z"/>
	<path fill="#C8DE9B" d="M238.2,471.1l14.6-63.2h6l14.6,63.2h-8.1l-4.2-17.5h-11l-4.2,17.5H238.2z M252.3,445.5h7.3l-3.7-15.7
		L252.3,445.5z"/>
	<path fill="#C8DE9B" d="M278.2,471.1v-63.2h8.1v63.2H278.2z"/>
	<path fill="#C8DE9B" d="M293.1,448.1L293.1,448.1v-40.2h8.1v27.7l18-27.7h9.7l-19.3,29.5l18.5,33.7h-9.4l-14.4-25.9l-3.4,5.2v20.6
		h-8.1L293.1,448.1L293.1,448.1z"/>
	<path fill="#C8DE9B" d="M331.5,471.1l14.6-63.2h6l14.6,63.2h-8.1l-4.2-17.5h-11l-4.2,17.5H331.5z M345.6,445.5h7.3l-3.7-15.7
		L345.6,445.5z"/>
	<path fill="#C8DE9B" d="M368.8,416v-8.1h35.8v8.1h-13.8v55.1h-8.1V416H368.8z"/>
	<path fill="#C8DE9B" d="M408.5,471.1l14.6-63.2h6l14.6,63.2h-8.1l-4.2-17.5h-11l-4.2,17.5H408.5z M422.6,445.5h7.3l-3.7-15.7
		L422.6,445.5z"/>
	<path fill="#C8DE9B" d="M445.9,454.4v-46.5h8.1v46.5c0,2.1,0.3,3.9,0.5,5c0.3,1,1,2.1,1.6,2.6c0.5,0.5,1.3,0.8,2.1,1
		c0.8,0.3,1.3,0,1.8,0c0.5,0,1.3,0,1.8,0c0.8,0,1.3-0.5,2.1-1c0.5-0.5,1-1.3,1.6-2.6c0.5-1.3,0.5-2.9,0.5-5v-46.5h8.1v46.5
		c0,5.2-1,9.1-3.4,12c-0.8,1-2.1,2.1-3.9,3.1c-1.8,1-3.9,1.6-6.8,1.6s-5.2-0.5-6.8-1.6c-1.8-1-3.1-2.1-3.9-3.1
		C446.9,463.5,445.9,459.6,445.9,454.4z"/>
	<path fill="#C8DE9B" d="M480.6,471.1v-63.2h8.1V463h19.3v8.1L480.6,471.1L480.6,471.1z"/>
	<path fill="#C8DE9B" d="M511.2,454.4v-46.5h8.1v46.5c0,2.1,0.3,3.9,0.5,5c0.3,1,1,2.1,1.6,2.6c0.5,0.5,1.3,0.8,2.1,1
		c0.8,0.3,1.3,0,1.8,0s1.3,0,1.8,0c0.8,0,1.3-0.5,2.1-1c0.5-0.5,1-1.3,1.6-2.6c0.5-1.3,0.5-2.9,0.5-5v-46.5h8.1v46.5
		c0,5.2-1,9.1-3.4,12c-0.8,1-2.1,2.1-3.9,3.1c-1.8,1-3.9,1.6-6.8,1.6s-5.2-0.5-6.8-1.6c-1.8-1-3.1-2.1-3.9-3.1
		C512.2,463.5,511.2,459.6,511.2,454.4z"/>
	<path fill="#C8DE9B" d="M545.7,416v-8.1h35.8v8.1h-13.8v55.1h-8.1V416H545.7z"/>
</g>
<path fill="#FFFFFF" d="M0,373.9v-29V146.7h43.9c19.3,0,33.4,5.7,42.3,17.2c8.9,10.2,13.3,25.9,13.3,46.8c0,20.6-4.4,36-13.3,46.8
	c-0.5,0.5-1.3,1.6-2.4,2.6c1.3,1.3,2.1,2.4,2.4,3.1c8.9,10.7,13.3,26.1,13.3,46.8c0,20.9-4.4,36.3-13.3,46.5
	c-9.1,11.5-23.5,17.2-42.3,17.2H29.3H0V373.9z M29,245.7h14.6c6.5,0,11.5-0.8,14.1-2.4c2.6-1.6,4.7-3.1,5.7-4.4
	c4.4-5.2,6.5-14.6,6.5-28.2c0-8.1-0.8-14.4-2.1-18.8c-1.3-4.4-3.1-8.1-5.5-10.4s-5.2-3.9-8.4-4.4c-3.1-0.5-6.8-0.8-10.4-0.8H29
	V245.7z M29,344.9h14.6c3.7,0,7.3-0.3,10.4-0.8c3.1-0.5,6-2.1,8.4-4.4c2.4-2.4,4.2-5.7,5.5-10.4c1.3-4.7,2.1-11,2.1-19.1
	c0-8.1-0.8-14.6-2.1-19.3c-1.6-4.7-3.4-8.4-5.7-10.7c-2.4-2.4-5.2-3.9-8.4-4.4s-6.5-0.8-10.2-0.8H29V344.9z"/>
<path fill="#FFFFFF" d="M116,313.3V146.4h29v166.7c0,7.8,0.8,13.8,2.4,18c1.6,4.2,3.4,7.3,5.7,9.4c2.4,1.8,4.7,3.1,7.1,3.4
	c2.4,0.3,4.7,0.5,6.8,0.5c2.1,0,4.4-0.3,6.8-0.5c2.6-0.3,5-1.3,7.1-3.4c2.4-1.8,4.2-5,5.7-9.4c1.6-4.4,2.4-10.4,2.4-18V146.4h29
	v166.7c0,18.8-4.2,33.4-12.3,43.4c-3.1,4.2-7.8,8.1-13.8,11.5c-6.3,3.7-14.4,5.5-24.6,5.5c-10.2,0-18.5-1.8-24.6-5.5
	c-6.3-3.7-10.7-7.6-13.8-11.5C119.9,346.5,116,332.1,116,313.3z"/>
<path fill="#FFFFFF" d="M235.6,309.1v-14.4h29v14.4c0,13.3,2.4,23,7.1,28.5c1,1.3,2.9,2.9,5.5,4.4c2.6,1.6,6.8,2.4,12.5,2.4
	c5.5,0,9.9-1.3,13.3-3.7c3.4-2.4,5.7-5.2,7.6-8.6c1.8-3.4,2.9-7.1,3.4-11c0.5-3.9,0.8-7.6,0.8-10.7c0-5.2-0.8-9.9-2.4-13.6
	c-1.6-3.7-3.7-6.8-6.5-9.4c-2.9-2.6-5.7-4.7-8.9-6.5s-6.5-3.4-9.9-4.7l-5.5-2.6c-3.4-1.3-7.6-3.4-12.5-6c-5-2.6-9.9-6.3-14.9-11
	c-12.3-12-18.5-27.2-18.5-45.7c0-9.7,1.3-18.5,3.9-26.4c2.6-8.1,6.3-14.9,11-20.6s10.7-10.2,17.2-13.3c6.8-3.1,14.1-4.7,21.9-4.7
	c11.2,0,19.9,1.8,26.4,5.7c6.5,3.9,11.5,7.8,14.6,12c8.9,11.2,13.3,27.2,13.3,47.3v14.4h-29.3v-14.4c0-8.9-0.8-15.7-2.6-20.6
	c-1.8-5-3.9-8.6-6.5-10.7s-5.5-3.4-8.4-3.9c-2.9-0.5-5.2-0.5-7.6-0.5c-6,0-10.4,1.3-13.8,4.2c-3.1,2.9-5.7,6.3-7.6,10.4
	c-1.8,3.9-2.9,8.1-3.1,12c-0.5,3.9-0.5,7.1-0.5,9.1c0,5.2,0.8,9.9,2.4,13.6c1.6,3.9,3.7,7.1,6.5,9.9c2.6,2.9,5.7,5.2,9.1,7.1
	c3.4,2.1,6.8,3.7,10.7,5l5,2.4c2.9,1.3,6.8,2.9,12,5.2c5,2.4,9.9,6,14.9,10.7c12.8,11.8,19.1,26.9,19.1,45.5
	c0,17.5-4.4,31.9-13.1,43.6c-9.9,13.1-23.8,19.3-41.3,19.3c-18,0-31.6-5.7-41-17.5C240,345.2,235.6,329.5,235.6,309.1z"/>
<path fill="#FFFFFF" d="M361.1,309.1v-14.4h29v14.4c0,13.3,2.4,23,7.1,28.5c1,1.3,2.9,2.9,5.5,4.4c2.6,1.6,6.8,2.4,12.5,2.4
	c5.5,0,9.9-1.3,13.3-3.7c3.4-2.4,5.7-5.2,7.6-8.6c1.8-3.4,2.9-7.1,3.4-11s0.8-7.6,0.8-10.7c0-5.2-0.8-9.9-2.4-13.6
	c-1.6-3.7-3.7-6.8-6.5-9.4c-2.9-2.6-5.7-4.7-8.9-6.5c-3.1-1.8-6.5-3.4-9.9-4.7l-5.5-2.6c-3.4-1.3-7.6-3.4-12.5-6
	c-5-2.6-9.9-6.3-14.9-11c-12.3-12-18.5-27.2-18.5-45.7c0-9.7,1.3-18.5,3.9-26.4c2.6-8.1,6.3-14.9,11-20.6
	c4.7-5.7,10.7-10.2,17.2-13.3c6.8-3.1,14.1-4.7,21.9-4.7c11.2,0,19.9,1.8,26.4,5.7s11.5,7.8,14.6,12c8.9,11.2,13.3,27.2,13.3,47.3
	v14.4h-29.3v-14.4c0-8.9-0.8-15.7-2.6-20.6s-3.9-8.6-6.5-10.7c-2.6-2.1-5.5-3.4-8.4-3.9c-2.9-0.5-5.2-0.5-7.6-0.5
	c-6,0-10.4,1.3-13.8,4.2c-3.1,2.9-5.7,6.3-7.6,10.4c-1.8,3.9-2.9,8.1-3.1,12c-0.5,3.9-0.5,7.1-0.5,9.1c0,5.2,0.8,9.9,2.4,13.6
	c1.6,3.9,3.7,7.1,6.5,9.9c2.6,2.9,5.7,5.2,9.1,7.1c3.4,2.1,6.8,3.7,10.7,5l5,2.4c2.9,1.3,6.8,2.9,12,5.2c5,2.4,9.9,6,14.9,10.7
	c12.8,11.8,19.1,26.9,19.1,45.5c0,17.5-4.4,31.9-13.1,43.6c-9.9,13.1-23.8,19.3-41.3,19.3c-18,0-31.6-5.7-41-17.5
	C365.5,345.2,361.1,329.5,361.1,309.1z"/>
<path fill="#FFFFFF" d="M485.3,373.9V146.7h94v29h-65v69.7h65v29h-65v70.3h65v29h-94V373.9z"/>
</svg>
