<?xml version="1.0" encoding="utf-8"?>
<!-- Generator: Adobe Illustrator 18.1.1, SVG Export Plug-In . SVG Version: 6.00 Build 0)  -->
<!DOCTYPE svg PUBLIC "-//W3C//DTD SVG 1.1//EN" "http://www.w3.org/Graphics/SVG/1.1/DTD/svg11.dtd">
<svg version="1.1" id="Layer_1" xmlns="http://www.w3.org/2000/svg" xmlns:xlink="http://www.w3.org/1999/xlink" x="0px" y="0px"
	 viewBox="0 0 217.9 243.4" enable-background="new 0 0 217.9 243.4" xml:space="preserve">
<polygon opacity="0.45" fill="#C8DE9B" points="137.3,14.2 106.1,14.2 25.6,242.2 106.1,242.2 137.3,242.2 217.9,242.2 "/>
<g>
	<path fill="white" d="M102,13.1c-0.9,0-1.7-0.7-1.7-1.7V2.2c0-0.9,0.7-1.7,1.7-1.7h39.3c0.9,0,1.7,0.7,1.7,1.7v9.3
		c0,0.9-0.7,1.7-1.7,1.7H102z"/>
	<path fill="white" d="M141.4,1c0.6,0,1.2,0.5,1.2,1.2v9.3c0,0.6-0.5,1.2-1.2,1.2H102c-0.6,0-1.2-0.5-1.2-1.2V2.2
		c0-0.6,0.5-1.2,1.2-1.2H141.4 M141.4,0H102c-1.2,0-2.2,1-2.2,2.2v9.3c0,1.2,1,2.2,2.2,2.2h39.3c1.2,0,2.2-1,2.2-2.2V2.2
		C143.5,1,142.6,0,141.4,0L141.4,0z"/>
</g>
<path fill="white" stroke="white" stroke-miterlimit="10" d="M7.8,242.9H0.5V39.1c0-1,0.8-1.8,1.8-1.8h5.6V242.9z"/>
<path fill="none" stroke="white" stroke-width="6.7187" stroke-linecap="round" stroke-miterlimit="10" d="M3.9,39.7
	C12.2,30.9,37,7.3,74.2,4.6c10.9-0.8,20.5,0.3,28.4,2.1"/>
</svg>
