<svg xmlns="http://www.w3.org/2000/svg" xmlns:xlink="http://www.w3.org/1999/xlink" version="1.1" id="Layer_1" x="0px" y="0px" width="100px" height="100px" viewBox="0 0 100 100" enable-background="new 0 0 100 100" xml:space="preserve">
<path stroke="#007AFF" fill-opacity="0" stroke-width="0.8" d="M82.958,58.479c-3.518,0-6.366,2.852-6.366,6.362c0,3.515,2.849,6.362,6.366,6.362  c3.513,0,6.36-2.848,6.36-6.362C89.318,61.331,86.471,58.479,82.958,58.479z M24.205,58.479c-3.514,0-6.365,2.852-6.365,6.362  c0,3.515,2.852,6.362,6.365,6.362c3.513,0,6.361-2.848,6.361-6.362C30.566,61.331,27.718,58.479,24.205,58.479z M88.229,43.94  l-6.522-13.695c-0.563-1.123-0.852-1.449-1.765-1.449H6.722c-0.915,0-1.357,0.533-1.357,1.449V62.05h10.542  c0.948-3.714,4.293-6.475,8.302-6.475c4.005,0,7.347,2.761,8.295,6.475h42.153c0.948-3.714,4.287-6.475,8.302-6.475  c4.005,0,7.347,2.761,8.293,6.475h3.385V43.94H88.229z M21.801,46.298H9.198v-10.81h12.603V46.298z M37.418,46.298H24.815v-10.81  h12.603V46.298z M53.034,46.298H40.433v-10.81h12.602V46.298z M68.17,59.409H55.589V35.606H68.17V59.409z M70.94,43.412v-7.924  h8.638l3.965,7.924H70.94z"/>
</svg>
