<?xml version="1.0" encoding="utf-8"?>
<!-- Generator: Adobe Illustrator 18.1.1, SVG Export Plug-In . SVG Version: 6.00 Build 0)  -->
<!DOCTYPE svg PUBLIC "-//W3C//DTD SVG 1.1//EN" "http://www.w3.org/Graphics/SVG/1.1/DTD/svg11.dtd">
<svg version="1.1" id="Layer_1" xmlns="http://www.w3.org/2000/svg" xmlns:xlink="http://www.w3.org/1999/xlink" x="0px" y="0px"
	 viewBox="0 0 40 40" enable-background="new 0 0 40 40" xml:space="preserve">
<g id="Guides" display="none">
	<rect x="22.2" y="2.2" display="inline" fill="#4BB5C1" width="20" height="20"/>
	<line display="inline" fill="none" x1="22.2" y1="22.2" x2="42.2" y2="2.2"/>
	<rect x="28.7" y="2.2" display="inline" fill="none" width="13.4" height="13.4"/>
</g>
<g>
	<path fill="#FFA131" d="M20,36.8c-0.6,0-1.3,0-1.9-0.1c-7.7-0.8-13.9-7-14.7-14.7c-0.5-4.8,0.9-9.5,4.2-13.1
		c3.2-3.5,7.7-5.6,12.5-5.6l16,0.4c0.2,0,0.3,0.1,0.3,0.3L36.8,20c0,4.5-1.7,8.7-4.9,11.8C28.7,35,24.5,36.8,20,36.8
		C20,36.8,20,36.8,20,36.8z"/>
	<path fill="#EEEEEE" d="M20,4.3l15.4,0.4L35.8,20c0,8.7-7.1,15.8-15.8,15.8c-0.6,0-1.2,0-1.8-0.1C11,34.9,5.1,29,4.3,21.8
		c-0.5-4.6,0.9-8.9,3.9-12.3C11.2,6.2,15.5,4.3,20,4.3 M20,2.2C9.5,2.2,1.2,11.3,2.4,22C3.3,30.2,9.8,36.7,18,37.6
		c0.7,0.1,1.4,0.1,2,0.1c9.8,0,17.7-7.9,17.7-17.7L37.4,3.9c0-0.7-0.6-1.3-1.3-1.3L20,2.2L20,2.2z"/>
</g>
</svg>
