<?xml version="1.0" encoding="utf-8"?>
<!-- Generator: Adobe Illustrator 18.1.1, SVG Export Plug-In . SVG Version: 6.00 Build 0)  -->
<!DOCTYPE svg PUBLIC "-//W3C//DTD SVG 1.1//EN" "http://www.w3.org/Graphics/SVG/1.1/DTD/svg11.dtd">
<svg version="1.1" id="Layer_1" xmlns="http://www.w3.org/2000/svg" xmlns:xlink="http://www.w3.org/1999/xlink" x="0px" y="0px"
	 viewBox="0 0 40 40" enable-background="new 0 0 40 40" xml:space="preserve">
<g>
	<path fill="#FFA131" d="M20,36.8c-9.2,0-16.8-7.5-16.8-16.8c0-9.2,7.5-16.8,16.8-16.8c9.2,0,16.8,7.5,16.8,16.8
		C36.8,29.2,29.2,36.8,20,36.8z"/>
	<path fill="#EEEEEE" d="M20,4.2c8.7,0,15.8,7.1,15.8,15.8S28.7,35.8,20,35.8S4.2,28.7,4.2,20S11.3,4.2,20,4.2 M20,2.2
		c-9.8,0-17.8,8-17.8,17.8s8,17.8,17.8,17.8s17.8-8,17.8-17.8S29.8,2.2,20,2.2L20,2.2z"/>
</g>
</svg>
