<?xml version="1.0" encoding="utf-8"?>
<!-- Generator: Adobe Illustrator 18.1.1, SVG Export Plug-In . SVG Version: 6.00 Build 0)  -->
<!DOCTYPE svg PUBLIC "-//W3C//DTD SVG 1.1//EN" "http://www.w3.org/Graphics/SVG/1.1/DTD/svg11.dtd">
<svg version="1.1" id="Layer_1" xmlns="http://www.w3.org/2000/svg" xmlns:xlink="http://www.w3.org/1999/xlink" x="0px" y="0px"
	 viewBox="30 -30 100 100" enable-background="new 30 -30 100 100" xml:space="preserve">
<g>
	<path fill="#EDF7F2" d="M107.9-19.9L80,8L52.1-19.9c-3.3-3.3-8.7-3.3-12,0c-3.3,3.3-3.3,8.7,0,12L68,20L40.1,47.9
		c-3.3,3.3-3.3,8.7,0,12c3.3,3.3,8.7,3.3,12,0L80,32l27.9,27.9c3.3,3.3,8.7,3.3,12,0c3.3-3.3,3.3-8.7,0-12L92,20l27.9-27.9
		c3.3-3.3,3.3-8.7,0-12C116.6-23.2,111.2-23.2,107.9-19.9z"/>
</g>
</svg>
