<?xml version="1.0" encoding="utf-8"?>
<!-- Generator: Adobe Illustrator 18.1.1, SVG Export Plug-In . SVG Version: 6.00 Build 0)  -->
<!DOCTYPE svg PUBLIC "-//W3C//DTD SVG 1.1//EN" "http://www.w3.org/Graphics/SVG/1.1/DTD/svg11.dtd">
<svg version="1.1" id="Layer_1" xmlns="http://www.w3.org/2000/svg" xmlns:xlink="http://www.w3.org/1999/xlink" x="0px" y="0px"
	 viewBox="8.8 8.8 22.5 22.5" enable-background="new 8.8 8.8 22.5 22.5" xml:space="preserve">
<g id="Guides" display="none">
	<rect x="22.2" y="2.2" display="inline" fill="#4BB5C1" width="20" height="20"/>
	<line display="inline" fill="none" x1="22.2" y1="22.2" x2="42.2" y2="2.2"/>
	<rect x="28.7" y="2.2" display="inline" fill="none" width="13.4" height="13.4"/>
</g>
<g>
	<path fill="#00A4FF" d="M20,29.8c-5.4,0-9.8-4.4-9.8-9.8s4.4-9.8,9.8-9.8s9.8,4.4,9.8,9.8S25.4,29.8,20,29.8z"/>
	<path fill="#EEEEEE" d="M20,11.8c4.5,0,8.2,3.7,8.2,8.2s-3.7,8.2-8.2,8.2s-8.2-3.7-8.2-8.2S15.5,11.8,20,11.8 M20,8.8
		c-6.2,0-11.2,5-11.2,11.2s5,11.2,11.2,11.2s11.2-5,11.2-11.2S26.2,8.8,20,8.8L20,8.8z"/>
</g>
</svg>
