<?xml version="1.0" encoding="utf-8"?>
<!-- Generator: Adobe Illustrator 18.1.1, SVG Export Plug-In . SVG Version: 6.00 Build 0)  -->
<!DOCTYPE svg PUBLIC "-//W3C//DTD SVG 1.1//EN" "http://www.w3.org/Graphics/SVG/1.1/DTD/svg11.dtd">
<svg version="1.1" id="Layer_1" xmlns="http://www.w3.org/2000/svg" xmlns:xlink="http://www.w3.org/1999/xlink" x="0px" y="0px"
	 viewBox="-383 385 32 32" enable-background="new -383 385 32 32" xml:space="preserve">
<g id="XMLID_2_">
	<g>
		<path fill="#EDF7F2" d="M-354.8,388.7c0.1,0,0.1,0.1,0.1,0.2l-12.9,25.8c-0.1,0.2-0.2,0.2-0.3,0l-3.8-8.4
			c-0.1-0.2-0.3-0.5-0.6-0.6l-8.3-3.8c-0.2-0.1-0.2-0.2,0-0.3l25.7-12.9C-354.8,388.7-354.8,388.7-354.8,388.7z"/>
	</g>
	<g>
		<path fill="none" stroke="#EDF7F2" stroke-width="0.633" d="M-354.8,388.7c0,0-0.1,0-0.1,0l-25.7,12.9c-0.2,0.1-0.2,0.2,0,0.3
			l8.3,3.8c0.2,0.1,0.5,0.3,0.6,0.6l3.8,8.4c0.1,0.2,0.2,0.2,0.3,0l12.9-25.8C-354.6,388.7-354.7,388.7-354.8,388.7z"/>
	</g>
</g>
</svg>
